<?xml version="1.0" encoding="utf-8"?>
<!-- Generator: Adobe Illustrator 25.3.1, SVG Export Plug-In . SVG Version: 6.00 Build 0)  -->
<svg version="1.1" xmlns="http://www.w3.org/2000/svg" xmlns:xlink="http://www.w3.org/1999/xlink" x="0px" y="0px"
	 viewBox="0 0 595.28 841.89" style="enable-background:new 0 0 595.28 841.89;" xml:space="preserve">
<style type="text/css">
	.st0{fill:#5B5B5B;}
	.st1{fill:#8C8C8C;}
	.st2{fill:#5E5E5E;}
	.st3{fill:#545454;}
	.st4{fill:#666666;}
	.st5{fill:#646666;}
	.st6{fill:#7F7F7F;}
	.st7{fill:#3F3F3F;}
	.st8{fill:#262626;}
	.st9{fill:#A6FCA4;}
	.st10{fill:#E5C1E2;}
	.st11{fill:#C0F2F2;}
	.st12{fill:#C4C4C4;}
	.st13{fill:#AEE5E3;}
	.st14{fill:#BBBAE2;}
	.st15{fill:#F4B3B3;}
	.st16{fill:#F2EFC0;}
	.st17{fill:#E2EDE2;}
	.st18{fill:#D1F2CE;}
	.st19{fill:#D4F4F2;}
	.st20{fill:#DDD8A6;}
	.st21{fill:#F2D7F1;}
	.st22{fill:none;stroke:#FFFFFF;stroke-width:2;}
</style>
<polygon class="st0" points="293.89,635.67 282.56,641.67 282.56,588.67 293.89,588.67 "/>
<polygon class="st1" points="282.89,641.33 274.95,635 274.89,594.33 282.89,594.33 "/>
<polygon class="st2" points="274.95,635 250.95,645.67 250.66,588.67 274.89,588.33 "/>
<polygon class="st3" points="250.95,645.67 246.62,658.33 246.89,601.33 250.89,600.33 "/>
<polygon class="st1" points="246.62,658.33 158.95,644.33 158.89,614 247.02,613 "/>
<polygon class="st4" points="192.56,449 174.28,426.67 174.22,396.34 192.22,395.33 "/>
<polygon class="st0" points="147.92,380.83 127.38,396.98 126.89,366 147.22,365.33 "/>
<polygon class="st1" points="127.59,397.17 118.56,375.67 118.55,361.8 127.56,380.67 "/>
<polygon class="st2" points="158.95,644.67 134.12,651.57 134.56,600.34 158.89,599.33 "/>
<polygon class="st5" points="134.28,663.33 105.62,676.33 105.56,637 134.22,618 "/>
<polygon class="st1" points="105.62,676.33 95.22,658.33 94.93,642.67 105.74,646 "/>
<polygon class="st4" points="126.22,620.67 103.56,616.33 103.26,600.67 127.56,600.67 "/>
<polygon class="st6" points="125.22,551.33 123.89,542.67 123.56,528.67 132.89,529 "/>
<polygon class="st2" points="336.56,597 291.22,615 291.22,562 336.56,562 "/>
<polygon class="st4" points="180.95,387.67 151.87,374.38 150.93,321.67 197.22,321.67 "/>
<polygon class="st4" points="151.89,374.67 148.89,359.67 148.89,306.67 151.56,306 "/>
<polygon class="st0" points="152.56,344.33 131.56,343.67 131.56,303 152.56,309.33 "/>
<polygon class="st0" points="199.89,280 184.56,268 184.56,252.67 205.56,233.67 "/>
<polygon class="st4" points="193.56,243.33 167.89,239 167.89,223.67 201.22,204.67 "/>
<polygon class="st1" points="167.89,239 142.56,198 142.56,182.67 167.89,171.67 "/>
<polygon class="st1" points="352.95,605 336.22,597.15 336.22,544.67 353.22,544.67 "/>
<polygon class="st3" points="358.22,588.67 352.95,605 353.04,551.33 358.22,551.33 "/>
<polygon class="st2" points="384.28,584.33 358.22,588.67 358.22,535.67 384.22,535.67 "/>
<polygon class="st1" points="395.62,598.08 384.22,584.33 384.22,531.33 395.89,531.33 "/>
<polygon class="st6" points="417.62,603 395.56,598 395.56,545 417.52,545 "/>
<polygon class="st7" points="436.62,567 417.56,603 417.56,550 436.64,550 "/>
<polygon class="st3" points="486.95,537.67 436.56,567 436.56,514 487.22,501.67 "/>
<polygon class="st7" points="503.62,513 486.92,537.7 486.85,485 503.89,485.67 "/>
<polygon class="st8" points="525.02,439.38 503.62,513 503.56,460.33 524.68,422.38 "/>
<polygon class="st6" points="221.48,730.51 148.39,748.58 148.39,712.58 221.31,712.58 "/>
<polygon class="st1" points="148.48,748.51 123.82,720.09 123.8,705.09 148.31,730.58 "/>
<polygon class="st0" points="233.33,701.42 221.57,730.34 221.55,715.34 233.31,686.42 "/>
<path class="st9" d="M123.8,705.09c0.36-1.08,63.19-33.03,63.19-33.03l46.32,14.36l-11.85,29.08l-73.24,18.31L123.8,705.09z"/>
<polygon class="st10" points="479.6,450.33 438.93,469 372.6,462 352.26,436.33 333.61,429.79 325.26,432 300.26,467 309.6,488.33 
	296.5,502.3 305.51,528.17 324.1,558.15 330.21,584.92 313.21,591.27 313.21,591.27 336.26,582.67 352.93,590 358.26,573.33 
	384.26,569.33 395.59,583.33 417.59,588 436.93,551.33 486.93,522.67 503.6,498 515.22,458.04 "/>
<polygon class="st11" points="130.29,332.82 118.55,361.8 127.36,381.98 147.9,365.84 "/>
<path class="st12" d="M260.58,277.27l57.22-36.58l60.5-2.81l39.87,31.89c0,0-7.97,47.84-9.85,47.84c-1.88,0-54.88,24.86-54.88,24.86
	l1.88,40.34l-4.38,33.97l-28.93,6.36l-35.18-0.47l-38.93-89.58L260.58,277.27z"/>
<polygon class="st13" points="301.36,416.76 301.32,404.07 295.32,381.88 292.02,362.7 275.24,346.81 265.94,317.43 277.8,308.43 
	268.34,288.35 210.78,290.15 197.6,277.86 197.6,278 168.93,268.67 130.26,302 131.59,328.67 148.26,329.33 148.93,344 
	151.59,359.33 180.93,372.67 171.59,390.67 173.46,405.09 199.99,416.96 219.9,407.08 230.26,407.67 241.06,410.37 257.55,398.37 
	270.14,398.97 281.83,416.96 "/>
<polygon class="st14" points="333.26,429.67 330.6,412.67 330.77,412.41 309.93,416.33 301.36,416.43 301.36,416.76 281.83,416.96 
	270.14,398.97 257.55,398.37 241.06,410.37 230.26,407.67 219.9,407.08 199.99,416.96 173.46,405.09 172.26,395.82 174.26,411.33 
	189.59,431.33 169.59,456.67 164.26,486.67 165.57,479.29 183.2,502.39 211.08,485 235.36,496.39 253.95,506.29 296.22,501.49 
	296.5,502.3 309.6,488.33 300.26,467 325.26,432 333.61,429.79 337.64,431.2 337.64,431.2 "/>
<path class="st9" d="M522.26,398l-14.67,6.67l6.67-99.33l-12-17.33l-8-47.33l0.73,4.34l-14.11,21.76l-14.69,1.5l-51.86,3.3
	c0,0-3.99-2.02-9.66-4.88l-10.74,37.98L369.6,299l-37.67,30l2,7.33L327.26,368l15.6,15.38l-12.26,29.29l2.67,17l19,6.67L372.6,462
	l66.33,7l40.67-18.67l35.62,7.71l9.71-33.38L522.26,398z"/>
<path class="st15" d="M494.26,240.67l-34.67-57.33l-65.33-98.67l-8.84-4.37l-6.5,11.7l-21.38,1.79L348.26,108l-46,7.33l-51.35-4.38
	l7.23,19.42l37.17,32.68c0,0,0.9,33.28,1.8,33.28c0.9,0,26.38,9.89,26.38,9.89l-8.09,47.96l13.19,5.1c0,0,36.57-11.39,38.37-11.09
	c1.8,0.3,47.37,23.38,47.37,23.38l51.86-3.3l14.69-1.5L495,245.01L494.26,240.67z"/>
<path class="st16" d="M323.5,206.21c0,0-25.48-9.89-26.38-9.89c-0.9,0-1.8-33.28-1.8-33.28l-37.17-32.68l-7.23-19.42l-3.32-0.28
	l-32.15,17.3l-0.52,6.7l-21.33,14.67l7.33,16.67l-14.67,8.67l-24.67-12l-19.33,20L167.6,224l28,4.67l-11.33,24l13.33,10.67v14.52
	l13.19,12.29l57.56-1.8l0.53,0.92L296.26,268l24.92-11.59l-5.77-2.23L323.5,206.21z"/>
<polygon class="st12" points="324.1,558.15 305.51,528.17 296.22,501.49 253.95,506.29 235.36,496.39 211.08,485 183.2,502.39 
	165.57,479.29 164.26,486.67 148.26,511.33 150.93,522 123.72,527.57 126.93,546 112.26,558 103.59,601.33 122.93,605.33 
	94.93,642.67 105.59,661.33 134.26,648 134.26,636.67 158.93,629.33 246.93,643.33 250.93,630.67 274.93,620 282.93,626.67 
	293.6,620.67 291.6,599.33 330.21,584.92 "/>
<polygon class="st17" points="189.13,512.83 221.28,512.83 234.63,526.18 205.51,543.17 183.06,526.18 "/>
<polygon class="st18" points="386.1,430 391.6,445.5 386.77,463.5 404.18,465.33 430.6,431.5 415.6,412.5 "/>
<polygon class="st19" points="295.68,383.21 295.32,381.88 292.02,362.7 275.24,346.81 274.91,345.77 258.6,370 277.6,386.5 "/>
<polygon class="st20" points="182.1,203 176.6,185 183.14,173.15 161.6,162.67 142.26,182.67 167.6,224 194.84,228.54 210.1,220 
	206.1,196 "/>
<polygon class="st12" points="255.6,204.5 228.1,189 207.43,204.03 209.62,217.18 228.6,223.5 256.6,216.5 "/>
<polygon class="st21" points="438.29,550.55 486.93,522.67 493.83,512.45 484.1,495.5 444.6,516.5 441.1,528 402.1,539.5 
	413.6,550.5 435.1,543 "/>
<path class="st14" d="M479.6,450.33l-15.84,7.27c-1.93,6.46-3.66,12.89-3.66,12.89l22,15.5l1.24,9.91l0.76-0.41l9.73,16.95
	l-1.72,2.55l0,0l11.49-17l11.62-39.96L479.6,450.33z"/>
<g>
	<path class="st22" d="M436.61,551.33"/>
	<polyline class="st22" points="514.9,458.04 479.28,450.33 438.61,469 372.28,462 351.94,436.33 333.29,429.79 324.94,432 
		299.94,467 309.28,488.33 296.18,502.3 305.19,528.17 323.78,558.15 329.9,584.92 	"/>
	<polyline class="st22" points="173.14,405.09 199.67,416.96 219.58,407.08 229.94,407.67 240.74,410.37 257.23,398.37 
		269.82,398.97 281.51,416.96 301.04,416.76 301,404.07 295,381.88 291.71,362.7 274.92,346.81 265.62,317.43 277.49,308.43 
		268.02,288.35 210.47,290.15 197.28,277.86 197.28,278 	"/>
	<polyline class="st22" points="165.25,479.29 182.88,502.39 210.76,485 235.04,496.39 253.63,506.29 295.9,501.49 296.18,502.3 
		309.28,488.33 299.94,467 324.94,432 333.29,429.79 337.33,431.2 337.33,431.2 332.94,429.67 330.28,412.67 330.45,412.41 
		309.61,416.33 301.04,416.43 301.04,416.76 281.51,416.96 269.82,398.97 257.23,398.37 240.74,410.37 229.94,407.67 219.58,407.08 
		199.67,416.96 173.14,405.09 	"/>
	<path class="st22" d="M494.68,245.01l-14.11,21.76l-14.69,1.5l-51.86,3.3c0,0-3.99-2.02-9.66-4.88l-10.74,37.98L369.28,299
		l-37.67,30l2,7.33L326.94,368l15.59,15.38l-12.26,29.29l2.67,17l19,6.67L372.28,462l66.33,7l40.67-18.67l35.62,7.71"/>
	<path class="st22" d="M250.6,110.95l7.24,19.42L295,163.05c0,0,0.9,33.28,1.8,33.28c0.9,0,26.38,9.89,26.38,9.89l-8.09,47.96
		l13.19,5.1c0,0,36.57-11.39,38.37-11.09c1.8,0.3,47.36,23.38,47.36,23.38l51.86-3.3l14.69-1.5l14.11-21.76"/>
	<polyline class="st22" points="193.28,149.33 200.61,166 185.94,174.67 	"/>
	<path class="st22" d="M195.28,228.67l-11.33,24l13.33,10.67v14.52l13.19,12.29l57.56-1.8l0.53,0.92L295.94,268l24.92-11.59
		l-5.77-2.23l8.09-47.96c0,0-25.48-9.89-26.38-9.89c-0.9,0-1.8-33.28-1.8-33.28l-37.17-32.68l-7.24-19.42"/>
	<polyline class="st22" points="329.9,584.92 323.78,558.15 305.19,528.17 295.9,501.49 253.63,506.29 235.04,496.39 210.76,485 
		182.88,502.39 165.25,479.29 	"/>
	<polygon class="st22" points="188.81,512.83 220.96,512.83 234.31,526.18 205.19,543.17 182.74,526.18 	"/>
	<polygon class="st22" points="385.78,430 391.28,445.5 386.45,463.5 403.86,465.33 430.28,431.5 415.28,412.5 	"/>
	<polygon class="st22" points="295.36,383.21 295,381.88 291.71,362.7 274.92,346.81 274.59,345.77 258.28,370 277.28,386.5 	"/>
	<polyline class="st22" points="194.52,228.54 209.78,220 205.78,196 181.78,203 176.28,185 182.82,173.15 	"/>
	<polygon class="st22" points="255.28,204.5 227.78,189 207.12,204.03 209.31,217.18 228.28,223.5 256.28,216.5 	"/>
	<polyline class="st22" points="493.51,512.45 483.78,495.5 444.28,516.5 440.78,528 401.78,539.5 413.28,550.5 434.78,543 
		437.97,550.55 	"/>
	<path class="st22" d="M514.9,458.04l-35.62-7.71l-15.84,7.27c-1.92,6.46-3.66,12.89-3.66,12.89l22,15.5l1.24,9.91l0.76-0.41
		l9.73,16.95l-1.72,2.55l0,0"/>
</g>
</svg>
